# xmcd
#
# Track frame offsets: 
#        187
#        15100
#        41475
#        57850
#        77152
#        99137
#        119710
#        144120
#        163192
#
# Disc length: 2495 seconds
#
# Revision: 9
# Processed by: cddbd v1.5.2PL0 Copyright (c) Steve Scherf et al.
# Submitted via: ExactAudioCopy v0.99pb5
#
DISCID=6409bd09
DTITLE=DIO - Holy Diver  PHCR-4127 Mercury Nippon Japan 94-11-6
DYEAR=1983
DGENRE=Heavy Metal
TTITLE0=Stand Up And Shout
TTITLE1=Holy Diver
TTITLE2=Gypsy
TTITLE3=Caught In The Middle
TTITLE4=Don't Talk To Strangers
TTITLE5=Straight Through The Heart
TTITLE6=Invisible
TTITLE7=Rainbow In The Dark
TTITLE8=Shame On The Night
EXTD=YEAR: 1983
EXTT0=
EXTT1=
EXTT2=
EXTT3=
EXTT4=
EXTT5=
EXTT6=
EXTT7=
EXTT8=
PLAYORDER=
